<svg width="32" height="32" viewBox="0 0 32 32" fill="none" xmlns="http://www.w3.org/2000/svg">
  <path
    d="M6.43874 13.0612L2.43874 9.0612C2.2989 8.92184 2.18795 8.75625 2.11224 8.57392C2.03653 8.3916 1.99756 8.19612 1.99756 7.9987C1.99756 7.80127 2.03653 7.6058 2.11224 7.42347C2.18795 7.24114 2.2989 7.07555 2.43874 6.9362L6.43874 2.9362C6.57827 2.79667 6.74392 2.68599 6.92622 2.61047C7.10852 2.53496 7.30392 2.49609 7.50124 2.49609C7.69857 2.49609 7.89396 2.53496 8.07626 2.61047C8.25857 2.68599 8.42421 2.79667 8.56374 2.9362C8.70327 3.07573 8.81395 3.24137 8.88946 3.42367C8.96498 3.60598 9.00384 3.80137 9.00384 3.9987C9.00384 4.19602 8.96498 4.39141 8.88946 4.57372C8.81395 4.75602 8.70327 4.92167 8.56374 5.0612L5.62499 7.99995L8.56124 10.9387C8.84303 11.2205 9.00134 11.6027 9.00134 12.0012C9.00134 12.3997 8.84303 12.7819 8.56124 13.0637C8.27945 13.3455 7.89726 13.5038 7.49874 13.5038C7.10023 13.5038 6.71803 13.3455 6.43624 13.0637L6.43874 13.0612ZM12.4387 13.0612C12.5781 13.201 12.7437 13.312 12.926 13.3877C13.1083 13.4634 13.3038 13.5024 13.5012 13.5024C13.6987 13.5024 13.8941 13.4634 14.0765 13.3877C14.2588 13.312 14.4244 13.201 14.5637 13.0612L18.5637 9.0612C18.7036 8.92184 18.8145 8.75625 18.8902 8.57392C18.966 8.3916 19.0049 8.19612 19.0049 7.9987C19.0049 7.80127 18.966 7.6058 18.8902 7.42347C18.8145 7.24114 18.7036 7.07555 18.5637 6.9362L14.5637 2.9362C14.2819 2.6544 13.8998 2.49609 13.5012 2.49609C13.1027 2.49609 12.7205 2.6544 12.4387 2.9362C12.1569 3.21799 11.9986 3.60018 11.9986 3.9987C11.9986 4.39721 12.1569 4.7794 12.4387 5.0612L15.375 7.99995L12.4387 10.9387C12.2993 11.078 12.1886 11.2434 12.1132 11.4255C12.0377 11.6076 11.9988 11.8028 11.9988 11.9999C11.9988 12.1971 12.0377 12.3923 12.1132 12.5744C12.1886 12.7565 12.2993 12.9219 12.4387 13.0612ZM25 4.49995H22.5C22.1022 4.49995 21.7206 4.65798 21.4393 4.93929C21.158 5.22059 21 5.60212 21 5.99995C21 6.39777 21.158 6.7793 21.4393 7.06061C21.7206 7.34191 22.1022 7.49995 22.5 7.49995H24.5V24.4999H7.49999V17.4999C7.49999 17.1021 7.34196 16.7206 7.06065 16.4393C6.77935 16.158 6.39782 15.9999 5.99999 15.9999C5.60217 15.9999 5.22064 16.158 4.93933 16.4393C4.65803 16.7206 4.49999 17.1021 4.49999 17.4999V24.9999C4.49999 25.663 4.76338 26.2989 5.23222 26.7677C5.70107 27.2366 6.33695 27.4999 6.99999 27.4999H25C25.663 27.4999 26.2989 27.2366 26.7678 26.7677C27.2366 26.2989 27.5 25.663 27.5 24.9999V6.99995C27.5 6.3369 27.2366 5.70102 26.7678 5.23218C26.2989 4.76334 25.663 4.49995 25 4.49995Z"
    fill="currentColor" />
</svg>
