<svg width="32" height="32" viewBox="0 0 32 32" fill="none" xmlns="http://www.w3.org/2000/svg">
  <path
    d="M30.5 7.00001V13C30.5 13.3978 30.342 13.7794 30.0607 14.0607C29.7793 14.342 29.3978 14.5 29 14.5H23C22.6022 14.5 22.2206 14.342 21.9393 14.0607C21.658 13.7794 21.5 13.3978 21.5 13C21.5 12.6022 21.658 12.2207 21.9393 11.9394C22.2206 11.658 22.6022 11.5 23 11.5H25.1375L22.7625 9.32751C22.7462 9.31251 22.73 9.29751 22.715 9.28126C21.6138 8.18071 20.2589 7.36767 18.7697 6.91368C17.2805 6.4597 15.7025 6.37868 14.1746 6.67776C12.6467 6.97684 11.2157 7.64685 10.0076 8.62883C8.79941 9.61082 7.85112 10.8747 7.24613 12.3092C6.64114 13.7438 6.39798 15.305 6.53806 16.8556C6.67814 18.4062 7.19716 19.8985 8.04946 21.2014C8.90175 22.5043 10.0612 23.5778 11.4258 24.3273C12.7903 25.0769 14.3182 25.4796 15.875 25.5H16C18.4249 25.5059 20.7591 24.5784 22.5187 22.91C22.808 22.6367 23.194 22.4894 23.5918 22.5007C23.9896 22.5119 24.3667 22.6808 24.64 22.97C24.9133 23.2593 25.0606 23.6452 25.0493 24.0431C25.0381 24.4409 24.8692 24.8179 24.58 25.0913C22.2636 27.2868 19.1915 28.5073 16 28.5H15.8287C13.7826 28.4712 11.7747 27.9404 9.98159 26.9543C8.18845 25.9682 6.66483 24.557 5.54451 22.8445C4.4242 21.132 3.74145 19.1707 3.55623 17.1327C3.371 15.0947 3.68896 13.0424 4.48219 11.156C5.27542 9.26956 6.51965 7.60676 8.10564 6.31356C9.69163 5.02035 11.5709 4.13631 13.5783 3.73905C15.5858 3.34179 17.6601 3.44346 19.6191 4.03514C21.5781 4.62682 23.3618 5.6904 24.8137 7.13251L27.5 9.59001V7.00001C27.5 6.60219 27.658 6.22065 27.9393 5.93935C28.2206 5.65805 28.6022 5.50001 29 5.50001C29.3978 5.50001 29.7793 5.65805 30.0607 5.93935C30.342 6.22065 30.5 6.60219 30.5 7.00001Z"
    fill="currentColor" />
</svg>
