<svg width="32" height="32" viewBox="0 0 32 32" fill="none" xmlns="http://www.w3.org/2000/svg">
<path d="M30.0324 23.2625L19.1012 4.27877C18.7846 3.73728 18.3317 3.28813 17.7876 2.976C17.2435 2.66387 16.6272 2.49963 15.9999 2.49963C15.3727 2.49963 14.7563 2.66387 14.2123 2.976C13.6682 3.28813 13.2153 3.73728 12.8987 4.27877L1.96743 23.2625C1.66021 23.788 1.49829 24.3857 1.49829 24.9944C1.49829 25.6031 1.66021 26.2008 1.96743 26.7263C2.28054 27.2704 2.73279 27.7215 3.27778 28.0332C3.82277 28.3449 4.44088 28.506 5.06868 28.5H26.9312C27.5586 28.5056 28.1762 28.3443 28.7207 28.0326C29.2652 27.7209 29.717 27.2701 30.0299 26.7263C30.3375 26.201 30.4999 25.6034 30.5003 24.9947C30.5008 24.386 30.3393 23.7882 30.0324 23.2625ZM27.4324 25.225C27.3816 25.3116 27.3083 25.3829 27.2203 25.4313C27.1323 25.4797 27.0328 25.5035 26.9324 25.5H5.06868C4.9683 25.5035 4.86884 25.4797 4.78083 25.4313C4.69282 25.3829 4.61952 25.3116 4.56868 25.225C4.52556 25.1549 4.50273 25.0742 4.50273 24.9919C4.50273 24.9096 4.52556 24.8289 4.56868 24.7588L15.4999 5.77502C15.5541 5.6917 15.6282 5.62323 15.7155 5.57582C15.8028 5.52842 15.9006 5.50359 15.9999 5.50359C16.0993 5.50359 16.1971 5.52842 16.2844 5.57582C16.3717 5.62323 16.4458 5.6917 16.4999 5.77502L27.4299 24.7588C27.4734 24.8286 27.4967 24.9092 27.4971 24.9915C27.4976 25.0738 27.4752 25.1547 27.4324 25.225ZM14.4999 17V13C14.4999 12.6022 14.658 12.2207 14.9393 11.9394C15.2206 11.6581 15.6021 11.5 15.9999 11.5C16.3978 11.5 16.7793 11.6581 17.0606 11.9394C17.3419 12.2207 17.4999 12.6022 17.4999 13V17C17.4999 17.3978 17.3419 17.7794 17.0606 18.0607C16.7793 18.342 16.3978 18.5 15.9999 18.5C15.6021 18.5 15.2206 18.342 14.9393 18.0607C14.658 17.7794 14.4999 17.3978 14.4999 17ZM17.9999 22C17.9999 22.3956 17.8826 22.7823 17.6629 23.1112C17.4431 23.4401 17.1308 23.6964 16.7653 23.8478C16.3998 23.9991 15.9977 24.0388 15.6098 23.9616C15.2218 23.8844 14.8654 23.6939 14.5857 23.4142C14.306 23.1345 14.1155 22.7782 14.0384 22.3902C13.9612 22.0022 14.0008 21.6001 14.1522 21.2346C14.3035 20.8692 14.5599 20.5568 14.8888 20.3371C15.2177 20.1173 15.6044 20 15.9999 20C16.5304 20 17.0391 20.2107 17.4141 20.5858C17.7892 20.9609 17.9999 21.4696 17.9999 22Z" fill="currentColor"/>
</svg>
